<?xml version="1.0" encoding="UTF-8" standalone="no"?>
<svg
   width="86"
   height="128"
   viewBox="0 0 86 128"
   version="1.1"
   id="svg2"
   sodipodi:docname="home.svg"
   xml:space="preserve"
   inkscape:version="1.3.2 (091e20e, 2023-11-25)"
   xmlns:inkscape="http://www.inkscape.org/namespaces/inkscape"
   xmlns:sodipodi="http://sodipodi.sourceforge.net/DTD/sodipodi-0.dtd"
   xmlns="http://www.w3.org/2000/svg"
   xmlns:svg="http://www.w3.org/2000/svg"><defs
     id="defs2" /><sodipodi:namedview
     id="namedview2"
     pagecolor="#ffffff"
     bordercolor="#000000"
     borderopacity="0.25"
     inkscape:showpageshadow="2"
     inkscape:pageopacity="0.0"
     inkscape:pagecheckerboard="0"
     inkscape:deskcolor="#d1d1d1"
     inkscape:zoom="3.7168514"
     inkscape:cx="53.136372"
     inkscape:cy="61.207719"
     inkscape:window-width="3440"
     inkscape:window-height="1416"
     inkscape:window-x="0"
     inkscape:window-y="24"
     inkscape:window-maximized="0"
     inkscape:current-layer="svg2" /><path
     fill="#ffffff"
     d="M 0.10169746,0.25423305 H 86.101694 V 128.25424 H 0.10169746 Z"
     id="path1-9" /><path
     id="path2-3"
     d="M 2.1015625,2.2539062 V 18.253906 H 84.101562 V 2.2539062 Z m 0,17.9999998 V 108.25391 H 84.101562 V 20.253906 Z M 43.664062,36.511719 c 0,0 17.497256,16.834558 27.210938,25.951172 0.647956,0.580033 1.083984,1.423776 1.083984,2.419921 0,1.743254 -1.263409,3.152344 -2.828125,3.152344 h -5.660156 v 22.066406 c 0,1.743254 -1.265364,3.152344 -2.830078,3.152344 h -8.488281 c -1.564715,0 -2.828125,-1.412243 -2.828125,-3.152344 V 77.492188 h -11.31836 v 12.609374 c 0,1.740101 -1.265363,3.152344 -2.830078,3.152344 H 26.6875 c -1.564714,0 -2.830078,-1.40909 -2.830078,-3.152344 V 68.035156 h -5.658203 c -1.564716,0 -2.830078,-1.40909 -2.830078,-3.152344 0,-0.996145 0.435376,-1.839888 1.009765,-2.419921 9.78159,-9.116614 27.285156,-25.951172 27.285156,-25.951172 z M 2.1015625,110.25391 v 16 H 28.101562 v -16 z m 27.9999995,0 v 16 h 26 v -16 z m 28,0 v 16 h 26 v -16 z"
     sodipodi:nodetypes="ccccccccccccsscssssccsssscssccccccccccccccccc"
     style="fill:#1972c2;fill-opacity:1" /></svg>
